<svg xmlns="http://www.w3.org/2000/svg" version="1.1" xmlns:xlink="http://www.w3.org/1999/xlink" width="2000" height="2143" viewBox="0 0 2000 2143"><svg xml:space="preserve" width="2000" height="2143" data-version="2" data-id="lg_3xbXYg2N2bxo5AkGKM" viewBox="0 0 322 345" x="0" y="0">
    <path fill="#F59E0B" d="M110.333 5.795c1.357 1.266 2.187 4.431 3.998 6.172 38.1 37.11 84.953 81.58 118.753 122.33 1.735 2.057 11.317 13.61 11.467 14.56.755 4.272-13.882 20.967-17.805 18.831L104.523 37.525 33.83 113.486 217.014 303.23l67.524-71.37c.83-4.985-29.198-28.723-29.952-32.838-.68-3.798 13.807-22.472 18.333-19.307l45.872 49.058c1.358 5.223-1.584 8.23-4.227 11.949-9.279 12.897-30.704 33.787-42.475 46.526-16.9 18.358-34.554 36.16-52.586 53.331-9.657 3.166-17.88-13.215-23.539-19.227-35.233-37.665-71.674-74.221-106.907-111.964-24.671-26.35-57.792-58.158-79.672-85.457-6.563-8.15-9.355-9.02-2.716-18.12 20.899-28.406 58.848-62.905 84.274-88.226 4.677-4.668 10.789-19.465 19.314-11.79z"></path>
    <path fill="#E5E5E5" d="M200.797 243.805c-2.188 2.216-16.9 15.904-18.107 15.746l-15.617-15.983 119.054-127.236-71.07-76.91-32.593 32.204c-2.943-4.273-15.467-13.689-15.467-18.04 0-4.51 27.312-28.644 32.744-34.104 4.376-4.431 8.752-14.48 15.391-14.322 7.017.158 86.236 92.024 99.437 102.627 3.169 4.035 4.227 10.049 1.134 14.243-39.912 38.692-75.75 82.291-114.83 121.696zM52.385 178.217c4.451-1.187 18.258 12.977 16.598 19.307-1.51 5.539-24.294 23.659-28.82 30.701-1.208 1.9-2.189 2.77-1.51 5.38 1.811 7.122 58.622 59.583 66.167 71.451l34.177-34.024c7.092 10.287 20.37 11.87 10.864 24.688-11.015 14.954-30.254 30.07-42.476 44.785-2.942 1.266-5.96 1.345-8.3-1.028L4.477 237.404c-.679-2.216-.754-4.827-.377-7.122 1.132-6.725 41.043-44.548 48.361-52.144zm94.008-65.525c-16.75 18.2-33.574 36.398-51.756 53.094-2.113.95-2.264 1.662-3.848-.396-4.074-5.143-7.62-10.682-12.373-15.27l60.734-65.122 16.824 16.22c.378 2.058-7.393 9.021-9.581 11.395z"></path>
</svg></svg>